<svg width="18" height="18" viewBox="0 0 18 18" fill="none" xmlns="http://www.w3.org/2000/svg">
<rect x="0.5" y="0.5" width="17" height="17" stroke="#E6E6E6"/>
<path d="M5.10385 9.35C5.03462 9.28 5 9.175 5 9.105C5 9.035 5.03462 8.93 5.10385 8.86L5.58846 8.37C5.72692 8.23 5.93462 8.23 6.07308 8.37L6.10769 8.405L8.01154 10.47C8.08077 10.54 8.18462 10.54 8.25385 10.47L12.8923 5.605H12.9269C13.0654 5.465 13.2731 5.465 13.4115 5.605L13.8962 6.095C14.0346 6.235 14.0346 6.445 13.8962 6.585L8.35769 12.395C8.28846 12.465 8.21923 12.5 8.11538 12.5C8.01154 12.5 7.94231 12.465 7.87308 12.395L5.17308 9.455L5.10385 9.35Z" fill="#ffffff"/>
</svg>
