<?xml version="1.0" encoding="UTF-8" standalone="no"?>
<!DOCTYPE svg PUBLIC "-//W3C//DTD SVG 1.1//EN" "http://www.w3.org/Graphics/SVG/1.1/DTD/svg11.dtd">
<svg width="100%" height="100%" viewBox="0 0 24 24" version="1.1" xmlns="http://www.w3.org/2000/svg" xmlns:xlink="http://www.w3.org/1999/xlink" xml:space="preserve" xmlns:serif="http://www.serif.com/" style="fill-rule:evenodd;clip-rule:evenodd;stroke-linejoin:round;stroke-miterlimit:1.41421;">
    <path d="M12,22C6.514,22 2,17.486 2,12C2,6.514 6.514,2 12,2C17.486,2 22,6.514 22,12C22,17.486 17.486,22 12,22ZM12,20C16.389,20 20,16.389 20,12C20,7.611 16.389,4 12,4C7.611,4 4,7.611 4,12C4,16.389 7.611,20 12,20ZM8.46,15.54C8.272,15.352 8.166,15.096 8.166,14.83C8.166,14.279 8.619,13.826 9.17,13.826C9.436,13.826 9.692,13.932 9.88,14.12C11.043,15.282 12.957,15.282 14.12,14.12C14.308,13.932 14.564,13.826 14.83,13.826C15.381,13.826 15.834,14.279 15.834,14.83C15.834,15.096 15.728,15.352 15.54,15.54C14.602,16.48 13.328,17.009 12,17.009C10.672,17.009 9.398,16.48 8.46,15.54ZM9,11C8.451,11 8,10.549 8,10C8,9.451 8.451,9 9,9C9.549,9 10,9.451 10,10C10,10.549 9.549,11 9,11ZM15,11C14.451,11 14,10.549 14,10C14,9.451 14.451,9 15,9C15.549,9 16,9.451 16,10C16,10.549 15.549,11 15,11Z" style="fill:rgb(98,108,180);fill-rule:nonzero;"/>
</svg>
