<?xml version="1.0" encoding="UTF-8" standalone="no"?>
<!DOCTYPE svg PUBLIC "-//W3C//DTD SVG 1.1//EN" "http://www.w3.org/Graphics/SVG/1.1/DTD/svg11.dtd">
<svg width="100%" height="100%" viewBox="0 0 24 24" version="1.1" xmlns="http://www.w3.org/2000/svg" xmlns:xlink="http://www.w3.org/1999/xlink" xml:space="preserve" xmlns:serif="http://www.serif.com/" style="fill-rule:evenodd;clip-rule:evenodd;stroke-linejoin:round;stroke-miterlimit:1.41421;">
    <path d="M4.93,19.07C2.98,17.186 1.877,14.588 1.877,11.877C1.877,6.391 6.391,1.877 11.877,1.877C14.588,1.877 17.186,2.98 19.07,4.93C20.87,6.794 21.877,9.286 21.877,11.877C21.877,17.363 17.363,21.877 11.877,21.877C9.286,21.877 6.794,20.87 4.93,19.07ZM6.34,17.66C7.841,19.161 9.878,20.004 12,20.004C16.391,20.004 20.004,16.391 20.004,12C20.004,9.878 19.161,7.841 17.66,6.34C16.159,4.839 14.122,3.996 12,3.996C7.609,3.996 3.996,7.609 3.996,12C3.996,14.122 4.839,16.159 6.34,17.66ZM13.41,12L14.83,13.41C15.018,13.598 15.124,13.854 15.124,14.12C15.124,14.671 14.671,15.124 14.12,15.124C13.854,15.124 13.598,15.018 13.41,14.83L12,13.4L10.59,14.82C10.402,15.008 10.146,15.114 9.88,15.114C9.329,15.114 8.876,14.661 8.876,14.11C8.876,13.844 8.982,13.588 9.17,13.4L10.6,12L9.18,10.59C8.992,10.402 8.886,10.146 8.886,9.88C8.886,9.329 9.339,8.876 9.89,8.876C10.156,8.876 10.412,8.982 10.6,9.17L12,10.6L13.41,9.18C13.598,8.992 13.854,8.886 14.12,8.886C14.671,8.886 15.124,9.339 15.124,9.89C15.124,10.156 15.018,10.412 14.83,10.6L13.4,12L13.41,12Z" style="fill:rgb(255,126,20);fill-rule:nonzero;"/>
</svg>
