<?xml version="1.0" encoding="UTF-8" standalone="no"?>
<!DOCTYPE svg PUBLIC "-//W3C//DTD SVG 1.1//EN" "http://www.w3.org/Graphics/SVG/1.1/DTD/svg11.dtd">
<svg width="100%" height="100%" viewBox="0 0 24 24" version="1.1" xmlns="http://www.w3.org/2000/svg" xmlns:xlink="http://www.w3.org/1999/xlink" xml:space="preserve" xmlns:serif="http://www.serif.com/" style="fill-rule:evenodd;clip-rule:evenodd;stroke-linejoin:round;stroke-miterlimit:1.41421;">
    <path d="M17,16C18.645,16.001 19.998,17.355 19.998,19C19.998,20.646 18.644,22 16.998,22C15.353,22 13.998,20.646 13.998,19C13.998,18.659 14.056,18.321 14.17,18L9.83,18C9.943,18.321 10.001,18.659 10.001,18.999C10.001,20.645 8.647,21.999 7.001,21.999C5.356,21.999 4.001,20.645 4.001,18.999C4.001,18.623 4.072,18.25 4.21,17.9C2.898,17.553 1.978,16.357 1.978,15C1.978,13.354 3.332,12 4.978,12C4.985,12 4.993,12 5,12L5,4L3,4C2.451,4 2,3.549 2,3C2,2.451 2.451,2 3,2L6,2C6.549,2 7,2.451 7,3L7,4L21,4C21.002,4 21.005,4 21.007,4C21.556,4 22.007,4.451 22.007,5C22.007,5.156 21.97,5.31 21.9,5.45L17.9,13.45C17.729,13.789 17.38,14.003 17,14L5,14C4.451,14 4,14.451 4,15C4,15.549 4.451,16 5,16L17,16ZM7,12L16.38,12L19.38,6L7,6L7,12ZM7,20C7.549,20 8,19.549 8,19C8,18.451 7.549,18 7,18C6.451,18 6,18.451 6,19C6,19.549 6.451,20 7,20ZM17,20C17.549,20 18,19.549 18,19C18,18.451 17.549,18 17,18C16.451,18 16,18.451 16,19C16,19.549 16.451,20 17,20Z" style="fill:rgb(0,151,73);fill-rule:nonzero;"/>
</svg>
