<?xml version="1.0" encoding="UTF-8" standalone="no"?>
<!DOCTYPE svg PUBLIC "-//W3C//DTD SVG 1.1//EN" "http://www.w3.org/Graphics/SVG/1.1/DTD/svg11.dtd">
<svg width="100%" height="100%" viewBox="0 0 24 24" version="1.1" xmlns="http://www.w3.org/2000/svg" xmlns:xlink="http://www.w3.org/1999/xlink" xml:space="preserve" xmlns:serif="http://www.serif.com/" style="fill-rule:evenodd;clip-rule:evenodd;stroke-linejoin:round;stroke-miterlimit:1.41421;">
    <path d="M12,22C6.514,22 2,17.486 2,12C2,6.514 6.514,2 12,2C17.486,2 22,6.514 22,12C22,17.486 17.486,22 12,22ZM12,20C16.389,20 20,16.389 20,12C20,7.611 16.389,4 12,4C7.611,4 4,7.611 4,12C4,16.389 7.611,20 12,20ZM16,12C16,12.549 15.549,13 15,13L9,13C8.451,13 8,12.549 8,12C8,11.451 8.451,11 9,11L15,11C15.549,11 16,11.451 16,12Z" style="fill:rgb(70,70,55);fill-rule:nonzero;"/>
</svg>
