<?xml version="1.0" encoding="UTF-8" standalone="no"?>
<!DOCTYPE svg PUBLIC "-//W3C//DTD SVG 1.1//EN" "http://www.w3.org/Graphics/SVG/1.1/DTD/svg11.dtd">
<svg width="100%" height="100%" viewBox="0 0 24 24" version="1.1" xmlns="http://www.w3.org/2000/svg" xmlns:xlink="http://www.w3.org/1999/xlink" xml:space="preserve" xmlns:serif="http://www.serif.com/" style="fill-rule:evenodd;clip-rule:evenodd;stroke-linejoin:round;stroke-miterlimit:1.41421;">
    <path d="M16.32,14.9L21.71,20.3C21.862,20.48 21.946,20.709 21.946,20.945C21.946,21.494 21.495,21.945 20.946,21.945C20.705,21.945 20.472,21.858 20.29,21.7L14.91,16.32C13.507,17.41 11.779,18.002 10.002,18.002C5.614,18.002 2.002,14.391 2.002,10.002C2.002,5.614 5.614,2.002 10.002,2.002C14.391,2.002 18.002,5.614 18.002,10.002C18.002,11.779 17.41,13.507 16.32,14.91L16.32,14.9ZM10,16C13.292,16 16,13.292 16,10C16,6.708 13.292,4 10,4C6.708,4 4,6.708 4,10C4,13.292 6.708,16 10,16Z" style="fill:rgb(27,173,207);fill-rule:nonzero;"/>
</svg>
