<?xml version="1.0" encoding="UTF-8" standalone="no"?>
<!DOCTYPE svg PUBLIC "-//W3C//DTD SVG 1.1//EN" "http://www.w3.org/Graphics/SVG/1.1/DTD/svg11.dtd">
<svg width="100%" height="100%" viewBox="0 0 24 24" version="1.1" xmlns="http://www.w3.org/2000/svg" xmlns:xlink="http://www.w3.org/1999/xlink" xml:space="preserve" xmlns:serif="http://www.serif.com/" style="fill-rule:evenodd;clip-rule:evenodd;stroke-linejoin:round;stroke-miterlimit:1.41421;">
    <path d="M2,15L2,5C2,3.9 2.9,3 4,3L20,3C21.097,3 22,3.903 22,5L22,20C21.992,20.543 21.543,20.986 21,20.986C20.738,20.986 20.487,20.883 20.3,20.7L16.58,17L4,17C2.903,17 2,16.097 2,15ZM20,5L4,5L4,15L17,15C17.264,15.004 17.515,15.112 17.7,15.3L20,17.59L20,5Z" style="fill:rgb(98,108,180);fill-rule:nonzero;"/>
</svg>
